<svg width="370" height="68" viewBox="0 0 370 68" fill="none" xmlns="http://www.w3.org/2000/svg">
<path d="M186.654 8.30658C168.283 9.61906 146.769 11.1966 121.349 13.1044C100.988 14.5092 80.6298 16.5357 60.375 18.6821C56.4682 19.0929 56.263 19.1651 56.5851 21.7016C56.5954 23.5672 56.7885 25.3696 56.9808 27.1729C57.0773 28.0741 57.173 28.9754 57.2471 29.8848L57.2567 29.9096C39.2955 30.6578 21.3935 31.9318 3.58902 33.315C-0.0326361 33.5937 -0.218229 33.6564 0.326155 36.1546C0.513799 37.9845 0.866262 39.7589 1.21961 41.5331C1.39585 42.4203 1.57197 43.3068 1.72742 44.2012C1.88391 44.5446 1.96664 44.9128 2.04098 45.2445C2.08497 45.4416 2.12639 45.6261 2.17801 45.7848C2.27179 46.6993 3.40275 47.4216 4.68741 47.7761C6.26679 48.1885 7.84538 48.6018 9.54747 48.3413C10.8785 48.207 12.0228 48.1341 13.1682 48.0626C47.8514 45.2617 150.846 41.2777 207.076 39.7995C182.854 41.4487 151.275 43.7133 108.789 46.9031C88.4275 48.3071 68.0691 50.3336 47.8154 52.4806C43.9076 52.8916 43.7023 52.963 44.0254 55.5001C44.0357 57.3657 44.2278 59.1675 44.4201 60.9708C44.5167 61.872 44.6132 62.7732 44.6864 63.6827C44.8179 64.0286 44.8679 64.4025 44.913 64.7395C44.9402 64.9395 44.9648 65.1269 45.0039 65.2872C45.0086 66.22 46.1447 66.9194 47.4834 67.2371C49.1311 67.6041 50.7797 67.9709 52.6291 67.6457C54.0686 67.4616 55.3028 67.3489 56.5369 67.2355C100.849 62.4114 247.836 52.5522 292.473 50.5757C294.53 50.4908 296.896 50.4546 299.056 50.4897C299.776 50.3977 300.496 50.3056 301.524 50.2629C301.83 49.6898 302.135 49.1182 302.132 48.4965C302.108 48.1093 302.076 47.7225 302.04 47.3377C327.529 45.665 350.405 44.3058 362.69 43.7617C364.195 43.6993 365.928 43.6728 367.509 43.6978C368.036 43.6304 368.563 43.5638 369.316 43.5326C369.539 43.1138 369.762 42.6951 369.76 42.2394C369.717 41.5402 369.638 40.8456 369.559 40.1526C369.336 38.1918 369.115 36.249 369.716 34.2724C369.939 33.6258 369.41 33.2381 368.731 32.9018C367.522 32.178 365.941 32.153 364.209 32.1793C363.314 32.2204 362.418 32.2608 361.516 32.3027L361.509 32.3027C348.748 32.8857 334.706 33.5283 300.894 35.8261C300.838 35.7972 300.783 35.7676 300.727 35.7396C299.075 34.7503 296.913 34.7169 294.548 34.7524C293.321 34.809 292.095 34.8647 290.859 34.9211C279.107 35.4583 266.56 36.0307 245.482 37.3083L240.189 29.9552C240.129 28.9216 240.168 27.8898 240.37 26.8548C240.57 25.9983 239.843 25.4547 238.93 24.9747C237.287 23.9528 235.26 23.8494 233.047 23.8088C231.905 23.8255 230.763 23.8407 229.614 23.8568L229.607 23.8569C215.449 24.0523 200.055 24.2649 167.933 25.3748C186.184 24.0731 204.945 22.7934 222.754 21.6261C256.439 21.0561 292.141 21.3974 323.483 22.4101L323.485 22.4098C324.628 22.4258 325.773 22.4417 327.101 22.5114C328.797 22.6893 330.387 22.2006 331.978 21.711C333.273 21.2944 334.424 20.516 334.542 19.5958C334.598 19.4348 334.644 19.2483 334.694 19.0492C334.777 18.7133 334.869 18.3412 335.034 17.9896C335.213 17.0875 335.413 16.1912 335.614 15.2949C336.013 13.5031 336.414 11.7113 336.65 9.87084C337.261 7.34429 337.076 7.28987 333.461 7.18755C327.031 6.99909 320.587 6.82698 314.132 6.68905C314.19 5.73445 314.341 4.77629 314.634 3.81379C314.938 2.9303 314.215 2.40141 313.287 1.94252C311.635 0.953233 309.475 0.91733 307.109 0.95357C305.882 1.01025 304.654 1.06705 303.419 1.12326C285.583 1.93806 265.915 2.83569 217.373 6.15491C210.56 6.3436 203.899 6.57566 197.262 6.8069C195.633 6.86374 194.006 6.92186 192.378 6.97784C190.247 7.11948 188.287 7.31048 186.654 8.30658Z" fill="#EEE5D8"/>
</svg>
